<?xml version="1.0" encoding="UTF-8" standalone="no"?>
<!DOCTYPE svg PUBLIC "-//W3C//DTD SVG 1.1//EN" "http://www.w3.org/Graphics/SVG/1.1/DTD/svg11.dtd">
<svg width="100%" height="100%" viewBox="0 0 512 512" version="1.1" xmlns="http://www.w3.org/2000/svg" xmlns:xlink="http://www.w3.org/1999/xlink" xml:space="preserve" xmlns:serif="http://www.serif.com/" style="fill-rule:evenodd;clip-rule:evenodd;stroke-linejoin:round;stroke-miterlimit:2;">
    <g id="Flat" transform="matrix(0.565598,0,0,0.565598,8.11626,94.7354)">
        <path d="M316.5,112.333C316.5,112.333 326,184.936 272,248L224,248C244.952,225.792 253.829,195.653 253.835,165.59C253.835,150.514 251.585,135.498 248.152,120.831C243.667,101.667 233,79.667 233,79.667L308.333,68.333C308.333,68.333 315.667,89.667 316.5,112.333Z" style="fill:rgb(153,153,153);fill-rule:nonzero;"/>
        <path d="M112,248L112,328L88,328C74.834,328 64,338.834 64,352C64,365.166 74.834,376 88,376L112,376L112,408C112,434.332 133.668,456 160,456L200,456L200,488L376,488L376,452.721C376,423.312 382.848,394.304 396,368C409.152,341.696 416,312.688 416,283.279L416,248L112,248Z" style="fill:rgb(153,153,153);fill-rule:nonzero;"/>
        <path d="M64,56L80,24L96,56L136,64L112,88L120,120L80,104L40,120L48,88L24,64L64,56Z" style="fill:rgb(153,153,153);fill-rule:nonzero;"/>
        <path d="M200,248C176,168 120,120 120,120L80,104L40,120C40,120 144,168 168,248L200,248Z" style="fill:rgb(153,153,153);fill-rule:nonzero;"/>
        <path d="M232,248C216,144 136,64 136,64L112,88L120,120C120,120 176,168 200,248L232,248Z" style="fill:rgb(153,153,153);fill-rule:nonzero;"/>
        <circle cx="272" cy="63.995" r="40" style="fill:rgb(153,153,153);"/>
        <path d="M215.955,98.24C204.923,98.21 195.262,90.583 192.673,79.859C192.23,78.014 192.004,76.123 192,74.225C191.981,63.167 199.626,53.466 210.382,50.9L319.267,24.668C332.065,21.6 345.123,29.59 348.218,42.381C348.661,44.226 348.886,46.117 348.89,48.015C348.91,59.068 341.269,68.766 330.518,71.332L221.624,97.562C219.768,98.011 217.865,98.239 215.955,98.24ZM235.243,61.362L214.135,66.452C210.548,67.305 207.996,70.538 208,74.225C208.003,74.868 208.081,75.509 208.233,76.134C209.271,80.387 213.62,83.037 217.876,82.008L326.766,55.778C330.347,54.925 332.894,51.696 332.89,48.015C332.887,47.372 332.809,46.732 332.658,46.107C331.621,41.852 327.272,39.198 323.014,40.223L235.243,61.363L235.243,61.362Z" style="fill:rgb(153,153,153);fill-rule:nonzero;"/>
        <path d="M232.813,72.057C232.267,69.404 231.992,66.703 231.992,63.994C231.992,42.046 250.053,23.985 272.001,23.985C289.57,23.985 305.179,35.558 310.284,52.369" style="fill:rgb(153,153,153);fill-rule:nonzero;"/>
        <path d="M48,240L48,208L72,224L96,208L96,248L120,272L80,272L64,304L51,271.667L24,264L48,240Z" style="fill:rgb(153,153,153);fill-rule:nonzero;"/>
        <path d="M80,408L64,408L64,392L48,392L48,408L32,408L32,424L48,424L48,440L64,440L64,424L80,424L80,408Z" style="fill:rgb(153,153,153);fill-rule:nonzero;"/>
    </g>
    <g id="Manager" transform="matrix(1.01389,0,0,1.01389,15.9712,-4.05602)">
        <path d="M345.42,488.176L345.42,306.824L316.004,293.044L308.02,250.64L203.98,250.64L195.996,293.044L167.528,306.38L167.528,488.176L345.42,488.176Z" style="fill:rgb(253,182,131);fill-rule:nonzero;"/>
        <path d="M467.84,508L460.24,410.856C457.725,378.664 438.039,350.213 408.8,336.512L327.16,298.264L327.16,321.888L317.856,321.888L317.856,334.288L180.9,334.288L180.9,300.116L103.2,336.512C73.957,350.21 54.265,378.662 51.748,410.856L44.16,508L467.84,508Z" style="fill:rgb(186,194,211);fill-rule:nonzero;"/>
        <path d="M268.148,334.56L229.044,334.56L221.596,351.924L244.04,380.488L230.992,443.12L255.98,497.26L283.976,439.028L272.248,379.32L290.02,350.1L268.148,334.56Z" style="fill:rgb(224,48,52);fill-rule:nonzero;"/>
        <path d="M460.244,410.856C457.728,378.664 438.04,350.212 408.8,336.512L334.4,301.648C328.332,336.2 313.924,367.864 298.268,399.048C291.008,413.512 284.204,427.924 277.8,442.756C274.228,450.976 256,499.004 256,499.004C256,499.004 226.448,425.444 221.068,411.5C213.776,392.588 208.164,372.908 198.5,355.016C196.844,351.948 195.096,348.932 193.3,345.936C176.86,339.48 168.408,325.536 168.72,305.812L103.2,336.512C73.957,350.21 54.265,378.662 51.748,410.856L44.16,508L467.84,508L460.244,410.856Z" style="fill:rgb(112,117,131);fill-rule:nonzero;"/>
        <path d="M460.244,410.856C457.728,378.664 438.04,350.212 408.8,336.512L334.4,301.648C328.332,336.2 313.924,367.864 298.268,399.048C291.008,413.512 284.204,427.924 277.8,442.756C274.228,450.976 256,499.004 256,499.004C256,499.004 226.448,425.444 221.068,411.5C213.776,392.588 208.164,372.908 198.5,355.016C196.844,351.948 195.096,348.932 193.3,345.936C176.86,339.48 168.408,325.536 168.72,305.812L103.2,336.512C73.957,350.21 54.265,378.662 51.748,410.856L44.16,508L467.84,508L460.244,410.856Z" style="fill:rgb(61,59,107);fill-rule:nonzero;"/>
        <path d="M467.84,508L410.48,508L402.88,410.84C400.339,378.652 380.641,350.214 351.4,336.52L328.72,325.88C331.032,317.907 332.915,309.815 334.36,301.64L408.8,336.52C438.031,350.218 457.715,378.658 460.24,410.84L467.84,508Z" style="fill:rgb(52,51,92);fill-rule:nonzero;"/>
        <g transform="matrix(0.228,-0.974,0.974,0.228,84.324,489.672)">
            <ellipse cx="350.924" cy="191.668" rx="33.72" ry="18.868" style="fill:rgb(253,182,131);"/>
        </g>
        <g transform="matrix(0.974,-0.228,0.228,0.974,-39.464,41.58)">
            <ellipse cx="160.296" cy="191.668" rx="18.868" ry="33.72" style="fill:rgb(253,182,131);"/>
        </g>
        <ellipse cx="255.612" cy="155.592" rx="95.316" ry="131.372" style="fill:rgb(253,200,162);"/>
        <path d="M344.948,200.912C344.948,200.912 378.608,140.772 371.316,93.076C364.024,45.38 331.892,30.324 312.8,30.324C312.8,30.324 287.032,-7.832 223.356,7.732C159.68,23.296 134.076,93.22 146.124,137.332C158.172,181.444 166.204,201.708 166.204,201.708C166.204,201.708 158.172,145.308 167.208,114.168C176.244,83.028 203.356,58.44 213.9,66.968C224.444,75.496 291.716,72.668 302.76,53.768C317.264,64.396 326.982,80.349 329.772,98.112C333.372,126.728 349.448,144.3 347.944,164.88C346.44,185.46 344.948,200.912 344.948,200.912Z" style="fill:rgb(52,51,92);fill-rule:nonzero;"/>
        <path d="M313.26,278.332L256,334.284L307.112,369.408L331.032,300.004L313.26,278.332Z" style="fill:rgb(217,226,233);fill-rule:nonzero;"/>
        <path d="M180.968,300.004L206.88,367.788L256,334.284L198.74,278.332L180.968,300.004Z" style="fill:rgb(217,226,233);fill-rule:nonzero;"/>
        <path d="M345.936,307.064L313.26,278.332L313.192,278.264C313.192,278.264 312.596,364.104 255.992,497.26C199.376,364.104 198.792,278.264 198.792,278.264L198.724,278.332L166.052,307.064L160.296,355.636L187.388,351.304L167.072,382.104C178.852,410.8 256,500.4 256,500.4C268.14,486.996 334.968,409.628 345.372,384.268L324.592,351.304L354.916,352.168L345.936,307.064Z" style="fill:rgb(77,74,135);fill-rule:nonzero;"/>
    </g>
</svg>
