<?xml version="1.0" encoding="UTF-8" standalone="no"?>
<!DOCTYPE svg PUBLIC "-//W3C//DTD SVG 1.1//EN" "http://www.w3.org/Graphics/SVG/1.1/DTD/svg11.dtd">
<svg width="100%" height="100%" viewBox="0 0 512 512" version="1.1" xmlns="http://www.w3.org/2000/svg" xmlns:xlink="http://www.w3.org/1999/xlink" xml:space="preserve" xmlns:serif="http://www.serif.com/" style="fill-rule:evenodd;clip-rule:evenodd;stroke-linejoin:round;stroke-miterlimit:2;">
    <g id="Flat" transform="matrix(0.561943,0,0,0.561943,-13.4866,-13.4782)">
        <path d="M316.5,112.333C316.5,112.333 326,184.936 272,248L224,248C244.952,225.792 253.829,195.653 253.835,165.59C253.835,150.514 251.585,135.498 248.152,120.831C243.667,101.667 233,79.667 233,79.667L308.333,68.333C308.333,68.333 315.667,89.667 316.5,112.333Z" style="fill:rgb(127,219,213);fill-rule:nonzero;"/>
        <path d="M112,248L112,328L88,328C74.834,328 64,338.834 64,352C64,365.166 74.834,376 88,376L112,376L112,408C112,434.332 133.668,456 160,456L200,456L200,488L376,488L376,452.721C376,423.312 382.848,394.304 396,368C409.152,341.696 416,312.688 416,283.279L416,248L112,248Z" style="fill:rgb(253,200,162);fill-rule:nonzero;"/>
        <g>
            <path d="M360.223,350.112C356.097,358.373 352.476,366.875 349.379,375.574L364.451,380.94C367.331,372.853 370.698,364.948 374.533,357.267C381.903,342.509 387.026,326.732 389.733,310.46L373.952,307.822C371.506,322.523 366.879,336.777 360.223,350.112Z" style="fill:rgb(253,182,131);fill-rule:nonzero;"/>
            <path d="M376,280L376,283.279C376,287.279 375.833,291.342 375.5,295.345L391.446,296.655C391.811,292.218 391.996,287.718 391.996,283.279L391.996,280L376,280Z" style="fill:rgb(253,182,131);fill-rule:nonzero;"/>
            <path d="M147.313,377.373C137.972,386.766 125.247,392.036 112,392L112,408C129.491,408.048 146.293,401.088 158.628,388.686L165.657,381.657L154.343,370.343L147.313,377.373Z" style="fill:rgb(253,182,131);fill-rule:nonzero;"/>
            <rect x="200" y="456" width="64" height="16" style="fill:rgb(253,182,131);"/>
        </g>
        <path d="M64,56L80,24L96,56L136,64L112,88L120,120L80,104L40,120L48,88L24,64L64,56Z" style="fill:rgb(255,180,49);fill-rule:nonzero;"/>
        <path d="M200,248C176,168 120,120 120,120L80,104L40,120C40,120 144,168 168,248L200,248Z" style="fill:rgb(222,85,64);fill-rule:nonzero;"/>
        <path d="M232,248C216,144 136,64 136,64L112,88L120,120C120,120 176,168 200,248L232,248Z" style="fill:rgb(214,74,52);fill-rule:nonzero;"/>
        <path d="M438.18,141.2L385.845,104.362L425.114,48.573C437.715,30.671 459.437,21.388 481.084,24.653C491.461,43.93 490.05,67.51 477.449,85.412L438.18,141.2Z" style="fill:rgb(222,85,64);fill-rule:nonzero;"/>
        <path d="M462.665,50.816C455.485,45.775 445.43,47.522 440.372,54.69C438.475,57.386 437.456,60.603 437.456,63.899C437.456,72.676 444.679,79.899 453.456,79.899C462.234,79.899 469.456,72.676 469.456,63.899C469.456,58.697 466.92,53.809 462.666,50.815L462.665,50.816Z" style="fill:rgb(255,180,49);fill-rule:nonzero;"/>
        <g>
            <path d="M408.869,71.648L373.492,66.313L345.863,105.564L372.761,95.148L385.845,104.358L408.869,71.648Z" style="fill:rgb(61,59,107);fill-rule:nonzero;"/>
            <path d="M461.204,108.487L478.162,139.989L450.533,179.241L451.263,150.405L438.18,141.196L461.204,108.487Z" style="fill:rgb(61,59,107);fill-rule:nonzero;"/>
            <path d="M413.219,162.759L373.968,135.13L398.929,113.567L425.096,131.986L413.219,162.759Z" style="fill:rgb(61,59,107);fill-rule:nonzero;"/>
        </g>
        <path d="M360,152C360,152 320,192 320,248L360,248C392,224 400,176 400,176L360,152Z" style="fill:rgb(255,180,49);fill-rule:nonzero;"/>
        <circle cx="272" cy="63.995" r="40" style="fill:rgb(61,59,107);"/>
        <path d="M215.955,98.24C204.923,98.21 195.262,90.583 192.673,79.859C192.23,78.014 192.004,76.123 192,74.225C191.981,63.167 199.626,53.466 210.382,50.9L319.267,24.668C332.065,21.6 345.123,29.59 348.218,42.381C348.661,44.226 348.886,46.117 348.89,48.015C348.91,59.068 341.269,68.766 330.518,71.332L221.624,97.562C219.768,98.011 217.865,98.239 215.955,98.24ZM235.243,61.362L214.135,66.452C210.548,67.305 207.996,70.538 208,74.225C208.003,74.868 208.081,75.509 208.233,76.134C209.271,80.387 213.62,83.037 217.876,82.008L326.766,55.778C330.347,54.925 332.894,51.696 332.89,48.015C332.887,47.372 332.809,46.732 332.658,46.107C331.621,41.852 327.272,39.198 323.014,40.223L235.243,61.363L235.243,61.362Z" style="fill:rgb(107,104,177);fill-rule:nonzero;"/>
        <path d="M232.813,72.057C232.267,69.404 231.992,66.703 231.992,63.994C231.992,42.046 250.053,23.985 272.001,23.985C289.57,23.985 305.179,35.558 310.284,52.369" style="fill:rgb(61,59,107);fill-rule:nonzero;"/>
        <path d="M496,280L480,280L480,264L464,264L464,280L448,280L448,296L464,296L464,312L480,312L480,296L496,296L496,280Z" style="fill:rgb(255,180,49);fill-rule:nonzero;"/>
        <path d="M80,408L64,408L64,392L48,392L48,408L32,408L32,424L48,424L48,440L64,440L64,424L80,424L80,408Z" style="fill:rgb(255,180,49);fill-rule:nonzero;"/>
        <g transform="matrix(0.868578,0,0,0.868578,3.15407,23.16)">
            <path d="M48,240L48,208L72,224L96,208L96,248L120,272L80,272L64,304L51,271.667L24,264L48,240Z" style="fill:rgb(255,180,49);fill-rule:nonzero;"/>
        </g>
    </g>
    <g id="Flat1" serif:id="Flat" transform="matrix(0.561943,0,0,0.561943,278.232,237.772)">
        <path d="M112,248L112,328L88,328C74.834,328 64,338.834 64,352C64,365.166 74.834,376 88,376L112,376L112,408C112,434.332 133.668,456 160,456L200,456L200,488L376,488L376,452.721C376,423.312 382.848,394.304 396,368C409.152,341.696 416,312.688 416,283.279L416,248L112,248Z" style="fill:rgb(253,200,162);fill-rule:nonzero;"/>
        <g>
            <path d="M360.223,350.112C356.097,358.373 352.476,366.875 349.379,375.574L364.451,380.94C367.331,372.853 370.698,364.948 374.533,357.267C381.903,342.509 387.026,326.732 389.733,310.46L373.952,307.822C371.506,322.523 366.879,336.777 360.223,350.112Z" style="fill:rgb(253,182,131);fill-rule:nonzero;"/>
            <path d="M376,280L376,283.279C376,287.279 375.833,291.342 375.5,295.345L391.446,296.655C391.811,292.218 391.996,287.718 391.996,283.279L391.996,280L376,280Z" style="fill:rgb(253,182,131);fill-rule:nonzero;"/>
            <path d="M147.313,377.373C137.972,386.766 125.247,392.036 112,392L112,408C129.491,408.048 146.293,401.088 158.628,388.686L165.657,381.657L154.343,370.343L147.313,377.373Z" style="fill:rgb(253,182,131);fill-rule:nonzero;"/>
            <rect x="200" y="456" width="64" height="16" style="fill:rgb(253,182,131);"/>
        </g>
        <g transform="matrix(-1.40409,1.2954,1.2954,1.40409,-199.51,-505.961)">
            <path d="M132.476,233.064L108.449,316.451L128.942,322.811L117.636,405.491L160.036,308.677L139.542,298.784L132.476,233.064Z" style="fill:rgb(255,180,49);"/>
        </g>
    </g>
</svg>
