<?xml version="1.0" encoding="UTF-8" standalone="no"?>
<!DOCTYPE svg PUBLIC "-//W3C//DTD SVG 1.1//EN" "http://www.w3.org/Graphics/SVG/1.1/DTD/svg11.dtd">
<svg width="100%" height="100%" viewBox="0 0 512 512" version="1.1" xmlns="http://www.w3.org/2000/svg" xmlns:xlink="http://www.w3.org/1999/xlink" xml:space="preserve" xmlns:serif="http://www.serif.com/" style="fill-rule:evenodd;clip-rule:evenodd;stroke-linejoin:round;stroke-miterlimit:2;">
    <g>
        <g>
            <g>
                <g>
                    <path d="M136,65.01L146,253.43L76,253.43L76,65.01C76,56.72 79.36,49.22 84.79,43.79C90.22,38.36 97.72,35 106,35C122.57,35 136,48.44 136,65.01Z" style="fill:rgb(224,48,52);fill-rule:nonzero;"/>
                    <ellipse cx="106" cy="17.502" rx="17.5" ry="17.502" style="fill:rgb(255,199,150);"/>
                </g>
                <g>
                    <path d="M196,65.01L196,253.43L136,253.43L136,65.01C136,56.72 139.36,49.22 144.79,43.79C150.22,38.36 157.72,35 166,35C182.57,35 196,48.44 196,65.01Z" style="fill:rgb(38,38,38);fill-rule:nonzero;"/>
                    <ellipse cx="166" cy="17.502" rx="17.5" ry="17.502" style="fill:rgb(255,199,150);"/>
                </g>
                <g>
                    <path d="M256,65.01L266,253.43L186,253.43L196,65.01C196,56.72 199.36,49.22 204.79,43.79C210.22,38.36 217.72,35 226,35C242.57,35 256,48.44 256,65.01Z" style="fill:rgb(38,38,38);fill-rule:nonzero;"/>
                    <ellipse cx="226" cy="17.502" rx="17.5" ry="17.502" style="fill:rgb(223,159,122);"/>
                </g>
                <g>
                    <path d="M316,65.01L316,253.43L256,253.43L256,65.01C256,56.72 259.36,49.22 264.79,43.79C270.22,38.36 277.72,35 286,35C302.57,35 316,48.44 316,65.01Z" style="fill:rgb(38,38,38);fill-rule:nonzero;"/>
                    <ellipse cx="286" cy="17.502" rx="17.5" ry="17.502" style="fill:rgb(255,199,150);"/>
                </g>
                <g>
                    <path d="M376,65.01L386,253.43L306,253.43L316,65.01C316,56.72 319.36,49.22 324.79,43.79C330.22,38.36 337.72,35 346,35C362.57,35 376,48.44 376,65.01Z" style="fill:rgb(38,38,38);fill-rule:nonzero;"/>
                    <ellipse cx="346" cy="17.502" rx="17.5" ry="17.502" style="fill:rgb(255,199,150);"/>
                </g>
                <g>
                    <path d="M436,65.01L436,253.43L376,253.43L376,65.01C376,56.72 379.36,49.22 384.79,43.79C388.77,39.81 393.86,36.94 399.55,35.71C401.63,35.24 403.79,35 406,35C422.57,35 436,48.44 436,65.01Z" style="fill:rgb(38,38,38);fill-rule:nonzero;"/>
                    <ellipse cx="406" cy="17.502" rx="17.5" ry="17.502" style="fill:rgb(223,159,122);"/>
                </g>
            </g>
            <g>
                <rect x="76" y="79" width="60" height="174.43" style="fill:rgb(251,69,82);fill-rule:nonzero;"/>
                <rect x="196" y="79" width="60" height="174.43" style="fill:rgb(64,64,64);fill-rule:nonzero;"/>
                <rect x="316" y="79" width="60" height="174.43" style="fill:rgb(64,64,64);fill-rule:nonzero;"/>
            </g>
            <g>
                <rect x="136" y="79" width="60" height="174.43" style="fill:rgb(64,64,64);fill-rule:nonzero;"/>
                <rect x="256" y="79" width="60" height="174.43" style="fill:rgb(64,64,64);fill-rule:nonzero;"/>
                <path d="M406,35C403.79,35 401.63,35.24 399.55,35.71C403.4,36.7 406.84,38.72 409.56,41.44C413.54,45.42 416,50.92 416,57C416,69.15 406.15,79 394,79L376,79L376,253.43L436,253.43L436,65.01C436,48.44 422.57,35 406,35Z" style="fill:rgb(64,64,64);fill-rule:nonzero;"/>
            </g>
            <g>
                <g>
                    <path d="M466,170.26L466,261.17L396,261.17L406,170.26C406,161.98 409.36,154.48 414.79,149.05C416.84,147 419.19,145.24 421.76,143.85C426,141.56 430.85,140.26 436,140.26C452.57,140.26 466,153.69 466,170.26Z" style="fill:rgb(51,51,51);fill-rule:nonzero;"/>
                    <ellipse cx="436" cy="122.755" rx="17.5" ry="17.502" style="fill:rgb(223,159,122);"/>
                </g>
                <g>
                    <path d="M226,170.26L236,261.17L156,261.17L166,170.26C166,161.98 169.36,154.48 174.79,149.05C180.22,143.62 187.72,140.26 196,140.26C212.57,140.26 226,153.69 226,170.26Z" style="fill:rgb(51,51,51);fill-rule:nonzero;"/>
                    <ellipse cx="196" cy="122.755" rx="17.5" ry="17.502" style="fill:rgb(255,199,150);"/>
                </g>
                <g>
                    <path d="M106,170.26L116,261.17L46,261.17L46,170.26C46,161.98 49.36,154.48 54.79,149.05C60.22,143.62 67.72,140.26 76,140.26C92.57,140.26 106,153.69 106,170.26Z" style="fill:rgb(224,48,52);fill-rule:nonzero;"/>
                    <ellipse cx="76" cy="122.755" rx="17.5" ry="17.502" style="fill:rgb(255,199,150);"/>
                </g>
                <g>
                    <path d="M346,170.26L356,261.17L276,261.17L286,170.26C286,161.98 289.36,154.48 294.79,149.05C300.22,143.62 307.72,140.26 316,140.26C332.57,140.26 346,153.69 346,170.26Z" style="fill:rgb(51,51,51);fill-rule:nonzero;"/>
                    <ellipse cx="316" cy="122.755" rx="17.5" ry="17.502" style="fill:rgb(223,159,122);"/>
                </g>
                <g>
                    <path d="M166,170.26L166,261.17L106,261.17L106,170.26C106,161.98 109.36,154.48 114.79,149.05C120.22,143.62 127.72,140.26 136,140.26C152.57,140.26 166,153.69 166,170.26Z" style="fill:rgb(51,51,51);fill-rule:nonzero;"/>
                    <path d="M136,140.26L136,261.17L106,261.17L106,170.26C106,161.98 109.36,154.48 114.79,149.05C120.22,143.62 127.72,140.26 136,140.26Z" style="fill:rgb(224,48,52);fill-rule:nonzero;"/>
                    <ellipse cx="136" cy="122.755" rx="17.5" ry="17.502" style="fill:rgb(223,159,122);"/>
                </g>
                <g>
                    <path d="M286,170.26L286,261.17L226,261.17L226,170.26C226,161.98 229.36,154.48 234.79,149.05C240.22,143.62 247.72,140.26 256,140.26C272.57,140.26 286,153.69 286,170.26Z" style="fill:rgb(51,51,51);fill-rule:nonzero;"/>
                    <ellipse cx="256" cy="122.755" rx="17.5" ry="17.502" style="fill:rgb(255,199,150);"/>
                </g>
                <g>
                    <path d="M406,170.26L406,261.17L346,261.17L346,170.26C346,161.98 349.36,154.48 354.79,149.05C360.22,143.62 367.72,140.26 376,140.26C392.57,140.26 406,153.69 406,170.26Z" style="fill:rgb(51,51,51);fill-rule:nonzero;"/>
                    <ellipse cx="376" cy="122.755" rx="17.5" ry="17.502" style="fill:rgb(255,199,150);"/>
                </g>
            </g>
            <g>
                <rect x="106" y="229.37" width="60" height="31.8" style="fill:rgb(77,77,77);fill-rule:nonzero;"/>
                <g transform="matrix(0.5,0,0,1,53,0)">
                    <rect x="106" y="229.37" width="60" height="31.8" style="fill:rgb(251,69,82);fill-rule:nonzero;"/>
                </g>
                <rect x="226" y="229.37" width="60" height="31.8" style="fill:rgb(77,77,77);fill-rule:nonzero;"/>
                <rect x="346" y="229.37" width="60" height="31.8" style="fill:rgb(77,77,77);fill-rule:nonzero;"/>
            </g>
            <g>
                <rect x="46" y="229.37" width="60" height="31.8" style="fill:rgb(251,69,82);fill-rule:nonzero;"/>
                <rect x="166" y="229.37" width="60" height="31.8" style="fill:rgb(77,77,77);fill-rule:nonzero;"/>
                <rect x="286" y="229.37" width="60" height="31.8" style="fill:rgb(77,77,77);fill-rule:nonzero;"/>
                <path d="M466,170.26L466,261.17L406,261.17L406,229.37L418.14,229.37C429.26,229.37 438.26,220.36 438.26,209.25L438.26,171.24C438.26,159.36 431.57,149.04 421.76,143.85C426,141.56 430.85,140.26 436,140.26C452.57,140.26 466,153.69 466,170.26Z" style="fill:rgb(77,77,77);fill-rule:nonzero;"/>
            </g>
        </g>
        <g>
            <g>
                <g>
                    <path d="M482.282,261.17C482.282,335.76 446.242,401.94 390.622,443.24L310.892,470.92L295.342,464.4L52.972,362.84C43.572,344.16 36.692,324.01 32.752,302.81L48.102,261.17L482.282,261.17Z" style="fill:rgb(61,59,107);fill-rule:nonzero;"/>
                    <path d="M482.282,261.17C482.282,335.76 446.242,401.94 390.622,443.24L310.892,470.92L295.342,464.4C382.162,437.64 445.272,356.76 445.272,261.17L482.282,261.17Z" style="fill:rgb(52,51,92);fill-rule:nonzero;"/>
                    <path d="M85.762,261.17C77.782,280.1 63.252,296.58 32.752,302.81C30.242,289.31 28.932,275.39 28.932,261.17L85.762,261.17Z" style="fill:rgb(127,219,213);fill-rule:nonzero;"/>
                    <g>
                        <path d="M40.358,496.999L7.501,496.999C3.358,496.999 -0,500.357 -0,504.499C-0,508.641 3.359,511.999 7.501,511.999L40.358,511.999C44.501,511.999 47.859,508.641 47.859,504.499C47.859,500.357 44.501,496.999 40.358,496.999Z" style="fill:rgb(208,237,245);fill-rule:nonzero;"/>
                        <path d="M143.377,496.999L75.514,496.999C71.371,496.999 68.013,500.357 68.013,504.499C68.013,508.641 71.372,511.999 75.514,511.999L143.377,511.999C147.52,511.999 150.878,508.641 150.878,504.499C150.879,500.357 147.52,496.999 143.377,496.999Z" style="fill:rgb(208,237,245);fill-rule:nonzero;"/>
                        <path d="M27.505,479.999L90.367,479.999C94.51,479.999 97.868,476.641 97.868,472.499C97.868,468.357 94.509,464.999 90.367,464.999L27.505,464.999C23.362,464.999 20.004,468.357 20.004,472.499C20.004,476.641 23.362,479.999 27.505,479.999Z" style="fill:rgb(208,237,245);fill-rule:nonzero;"/>
                        <path d="M414.954,496.999L352.092,496.999C347.949,496.999 344.591,500.357 344.591,504.499C344.591,508.641 347.95,511.999 352.092,511.999L414.954,511.999C419.097,511.999 422.455,508.641 422.455,504.499C422.455,500.357 419.096,496.999 414.954,496.999Z" style="fill:rgb(208,237,245);fill-rule:nonzero;"/>
                        <path d="M504.403,464.998L411.535,464.998C407.392,464.998 404.034,468.356 404.034,472.498C404.034,476.64 407.393,479.998 411.535,479.998L504.403,479.998C508.546,479.998 511.904,476.64 511.904,472.498C511.905,468.356 508.546,464.998 504.403,464.998Z" style="fill:rgb(208,237,245);fill-rule:nonzero;"/>
                    </g>
                    <path d="M296.162,321.92C289.022,338.25 237.442,334.52 224.832,321.92C215.072,312.16 210.552,278.89 216.642,261.17L258.072,261.17C280.722,277.53 302.692,306.98 296.162,321.92Z" style="fill:rgb(127,219,213);fill-rule:nonzero;"/>
                    <path d="M390.617,443.237C352.91,471.238 306.191,487.809 255.602,487.809C200.432,487.809 149.872,468.108 110.575,435.347C86.731,415.486 67.047,390.815 52.974,362.844C142.281,362.844 87.08,302.812 128.488,302.812C183.818,302.812 176.677,392.625 206.903,408.226C236.759,423.647 259.063,391.345 301.511,391.345C333.757,391.345 334.107,419.446 356.101,434.297C363.992,439.617 374.674,443.237 390.617,443.237Z" style="fill:rgb(127,219,213);fill-rule:nonzero;"/>
                    <path d="M356.101,434.297C363.992,439.617 374.674,443.237 390.617,443.237C352.91,471.238 306.191,487.809 255.602,487.809C200.432,487.809 149.872,468.108 110.575,435.347C145.111,459.588 187.189,473.808 232.598,473.808C278.647,473.809 321.285,459.168 356.101,434.297Z" style="fill:rgb(114,197,191);fill-rule:nonzero;"/>
                    <g>
                        <path d="M511.905,370.358C511.905,380.946 503.311,389.538 492.722,389.538L390.773,389.538C376.33,389.538 364.625,377.826 364.625,363.386C364.625,348.953 376.331,337.241 390.773,337.241C396.79,337.241 402.333,339.275 406.753,342.692C410.087,324.085 426.357,309.958 445.922,309.958C454.829,309.958 463.064,312.886 469.7,317.832C479.418,325.087 485.718,336.684 485.718,349.748C485.718,350.681 485.687,351.613 485.626,352.531C487.82,351.66 490.213,351.178 492.721,351.178C503.311,351.178 511.905,359.763 511.905,370.358Z" style="fill:rgb(230,248,252);fill-rule:nonzero;"/>
                        <path d="M511.905,370.358C511.905,380.946 503.311,389.538 492.722,389.538L390.773,389.538C376.33,389.538 364.625,377.826 364.625,363.386C364.625,370.564 373.502,377.032 380.673,377.032L437.397,377.032C458.553,376.826 475.633,359.61 475.633,338.411C475.633,330.843 473.462,323.787 469.7,317.832C479.418,325.087 485.718,336.684 485.718,349.748C485.718,350.681 485.687,351.613 485.626,352.531C487.82,351.66 490.213,351.178 492.721,351.178C503.311,351.178 511.905,359.763 511.905,370.358Z" style="fill:rgb(208,237,245);fill-rule:nonzero;"/>
                    </g>
                </g>
                <path d="M504.5,253.428L7.5,253.428C3.358,253.428 0,256.786 0,260.928C0,265.07 3.358,268.428 7.5,268.428L504.5,268.428C508.642,268.428 512,265.07 512,260.928C512,256.786 508.642,253.428 504.5,253.428Z" style="fill:rgb(58,75,86);fill-rule:nonzero;"/>
            </g>
            <path d="M224.87,373.75C224.84,373.53 224.97,373.3 225.23,373.06L224.87,373.75Z" style="fill:rgb(183,126,90);fill-rule:nonzero;"/>
        </g>
    </g>
</svg>
