<svg id="Ebene_1" data-name="Ebene 1" xmlns="http://www.w3.org/2000/svg" viewBox="0 0 768 731.71"><defs><style>.cls-1{fill:#d64a34;}.cls-2{fill:#ffc796;}.cls-3{fill:#262626;}.cls-4{fill:#df9f7a;}.cls-5{fill:#404040;}.cls-6{fill:#de5540;}.cls-7{fill:#333;}.cls-8{fill:#4d4d4d;}.cls-9{fill:#3d3b6b;}.cls-10{fill:#34335c;}.cls-11,.cls-14{fill:#7fdbd5;}.cls-12,.cls-13{fill:#72c5bf;}.cls-13,.cls-14{fill-rule:evenodd;}.cls-15{fill:#3a4b56;}.cls-16{fill:#b77e5a;}</style></defs><g id="Ebene_2" data-name="Ebene 2"><g id="Ebene_4" data-name="Ebene 4"><g id="Ebene_8" data-name="Ebene 8"><path class="cls-1" d="M204,97.52l15,282.62H114V97.52a45,45,0,1,1,90,0Z"/><circle class="cls-2" cx="159" cy="26.25" r="26.25"/><path class="cls-3" d="M294,97.52V380.14H204V97.52a45,45,0,1,1,90,0Z"/><circle class="cls-2" cx="249" cy="26.25" r="26.25"/><path class="cls-3" d="M384,97.52l15,282.62H279L294,97.52a45,45,0,1,1,90,0Z"/><circle class="cls-4" cx="339" cy="26.25" r="26.25"/><path class="cls-3" d="M474,97.52V380.14H384V97.52a45,45,0,1,1,90,0Z"/><circle class="cls-2" cx="429" cy="26.25" r="26.25"/><path class="cls-3" d="M564,97.52l15,282.62H459L474,97.52a45,45,0,1,1,90,0Z"/><circle class="cls-2" cx="519" cy="26.25" r="26.25"/><path class="cls-3" d="M654,97.52V380.14H564V97.52a45,45,0,0,1,35.32-44A44.31,44.31,0,0,1,609,52.5,45,45,0,0,1,654,97.52Z"/><circle class="cls-4" cx="609" cy="26.25" r="26.25"/><rect class="cls-5" x="204" y="118.5" width="90" height="261.64"/><rect class="cls-5" x="384" y="118.5" width="90" height="261.64"/><path class="cls-5" d="M609,52.5a44.31,44.31,0,0,0-9.68,1.06A33,33,0,0,1,591,118.5H564V380.14h90V97.52A45,45,0,0,0,609,52.5Z"/><rect class="cls-5" x="474" y="118.5" width="90" height="261.64"/><rect class="cls-5" x="294" y="118.5" width="90" height="261.64"/><rect class="cls-6" x="114" y="118.5" width="90" height="261.64"/></g><g id="Ebene_9" data-name="Ebene 9"><path class="cls-7" d="M699,255.39V391.76H594l15-136.37a45,45,0,0,1,90,0Z"/><circle class="cls-4" cx="654" cy="184.13" r="26.25"/><path class="cls-7" d="M339,255.39l15,136.37H234l15-136.37a45,45,0,0,1,90,0Z"/><circle class="cls-2" cx="294" cy="184.13" r="26.25"/><path class="cls-1" d="M159,255.39l15,136.37H69V255.39a45,45,0,0,1,90,0Z"/><circle class="cls-2" cx="114" cy="184.13" r="26.25"/><path class="cls-7" d="M519,255.39l15,136.37H414l15-136.37a45,45,0,0,1,90,0Z"/><circle class="cls-4" cx="474" cy="184.13" r="26.25"/><path class="cls-1" d="M249,255.39V391.76H159V255.39a45,45,0,0,1,90,0Z"/><circle class="cls-4" cx="204" cy="184.13" r="26.25"/><path class="cls-7" d="M429,255.39V391.76H339V255.39a45,45,0,0,1,90,0Z"/><circle class="cls-2" cx="384" cy="184.13" r="26.25"/><path class="cls-7" d="M609,255.39V391.76H519V255.39a45,45,0,0,1,90,0Z"/><circle class="cls-2" cx="564" cy="184.13" r="26.25"/><rect class="cls-8" x="249" y="344.05" width="90" height="47.7"/><rect class="cls-8" x="429" y="344.05" width="90" height="47.7"/><path class="cls-8" d="M699,255.39V391.76H609V344.05h18.21a30.17,30.17,0,0,0,30.18-30.17v-57a46.43,46.43,0,0,0-24.75-41.08A45,45,0,0,1,699,255.39Z"/><rect class="cls-6" x="159" y="344.05" width="90" height="47.7"/><rect class="cls-8" x="339" y="344.05" width="90" height="47.7"/><rect class="cls-8" x="519" y="344.05" width="90" height="47.7"/><rect class="cls-6" x="69" y="344.05" width="90" height="47.7"/></g></g><g id="Ebene_3" data-name="Ebene 3"><g id="Ebene_5" data-name="Ebene 5"><g id="Ebene_7" data-name="Ebene 7"><path class="cls-9" d="M723.42,391.76c0,111.88-54.06,211.15-137.49,273.1L466.34,706.38,443,696.6,79.46,544.26a337.14,337.14,0,0,1-30.33-90.05l23-62.45Z"/><path class="cls-10" d="M723.42,391.76c0,111.88-54.06,211.15-137.49,273.1L466.34,706.38,443,696.6c130.23-40.14,224.9-161.46,224.9-304.84Z"/><path class="cls-11" d="M128.64,391.76c-12,28.39-33.76,53.11-79.51,62.45a340.94,340.94,0,0,1-5.73-62.45Z"/><path class="cls-11" d="M444.24,482.88c-10.71,24.5-88.08,18.9-107,0-14.64-14.64-21.42-64.54-12.29-91.12h62.15C421.08,416.29,454,460.47,444.24,482.88Z"/><path class="cls-11" d="M585.93,664.86A340.22,340.22,0,0,1,79.46,544.27c134,0,51.16-90,113.27-90,83,0,72.29,134.72,117.62,158.12C355.14,635.47,388.59,587,452.27,587c48.37,0,48.89,42.15,81.88,64.43C546,659.43,562,664.86,585.93,664.86Z"/><path class="cls-12" d="M534.15,651.45c11.84,8,27.86,13.41,51.78,13.41A340.13,340.13,0,0,1,165.86,653a319.2,319.2,0,0,0,368.29-1.57Z"/><path class="cls-13" d="M664.39,439.26c26.37,15.16,46.62,43.44,46.7,43.56a338.56,338.56,0,0,1-54,110.64c-.11,0-28-10.39-42-25.94A317,317,0,0,0,664.39,439.26Z"/><path class="cls-14" d="M657,593.76l.24.09-.16-.06Zm-.44-.17.18.07-.1,0Zm-.52-.21.42.17-.14-.06Zm-.66-.26.58.23ZM655,593l.1,0-.08,0Zm-.64-.26.14.06,0,0Zm-.59-.25.18.08-.1,0Zm-.6-.25.1,0-.08,0Zm-.83-.35.21.08-.07,0Zm-.71-.31.23.1-.14-.07Zm-.71-.32,0,0,0,0-.07,0Zm-1-.45.26.12-.11,0Zm-.87-.39.32.15-.18-.08Zm-.71-.33.62.29-.22-.1Zm-.67-.31.66.31Zm-.73-.34.64.3-.26-.12Zm-.73-.35.7.33Zm-.74-.36.67.33-.31-.16Zm-.78-.38.73.36Zm-.76-.38.72.36-.37-.19Zm-.82-.41.77.39Zm-.77-.39.76.39-.44-.22Zm-.85-.44-.78-.41,1.57.82Zm-1.2-.63.33.17-.17-.09Zm-.87-.47-.35-.19,1.1.59-.33-.17Zm-.83-.45.35.19-.2-.11Zm-.44-.24.36.19-.35-.19-.41-.23Zm-.8-.45.37.21-.14-.08Zm-.49-.27.37.21-.23-.14Zm-.43-.25.43.25-.45-.26-.36-.2Zm-.82-.47.38.22-.16-.09Zm-.91-.53.43.25.11.06-.59-.34Zm-.84-.5.38.23-.18-.11Zm-.91-.55.44.27.07,0-.59-.36Zm-.85-.53.39.24-.21-.13Zm-.89-.56.44.28,0,0-.6-.37Zm-.87-.55.39.25-.23-.15Zm-.87-.57.43.28h0l-.59-.39Zm-1.3-.88.43.3.13.09-.58-.4Zm-.82-.56.38.26-.17-.11Zm-.89-.63.42.3.1.07-.58-.41Zm-.82-.59.37.27-.18-.14Zm-.09-.07c-10.22-7.47-18.8-17-18.13-27.55,1.6-25.34,6.41-42.21-2.41-55.06s-9.62-65.07,29.68-64.26c10.52.21,20.89,4.11,30.44,9.7l-.6-.35a317.83,317.83,0,0,1-49.26,128.45A67.41,67.41,0,0,0,625.5,576.93Zm85.56-94.06,0,0-.06-.09Zm-.33-.45.07.1-.13-.18Zm-.24-.32.1.14-.32-.44Zm-.3-.39,0,0-.06-.08Zm-.34-.45,0,.06-.1-.13Zm-.39-.51.07.08-.09-.11Zm-.43-.57,0,0-.11-.14Zm-.49-.62.08.1-.15-.19Zm-.53-.68.07.1-.09-.12Zm-.58-.72.06.06-.17-.2Zm-.62-.78.11.14-.24-.3Zm-1.15-1.4.48.57.45.56C706.3,476.75,706,476.37,705.66,476Zm-1.11-1.34.53.63.5.6Zm-1.2-1.41.58.67.54.64Zm-.29-.34.21.24-.58-.67Zm-1-1.15.61.71Zm-.33-.38.24.28-.6-.68Zm-1-1.18.66.74Zm-.36-.41.29.33-.64-.72Zm-.49-.54.09.1-.25-.28Zm-.5-.56.16.18-.26-.28Zm-.51-.55.24.26-.23-.25-.25-.27Zm-.51-.56.11.12-.28-.3Zm-.53-.57.19.2-.28-.3Zm-.53-.57.31.33-.28-.3-.28-.3Zm-.55-.58.14.14-.3-.31Zm-1.36-1.43.31.32.42.44.3.32Zm-.32-.33.16.16-.32-.33Zm-1.41-1.44.34.34.44.44.32.33Zm-.34-.36.18.2-.34-.35Zm-.61-.6.31.31-.34-.34-.4-.4Zm-.61-.6.13.12-.36-.36Zm-.61-.61.22.21-.37-.35Zm-.63-.61.37.36-.37-.36-.38-.37Zm-.63-.61.15.14L690,459Zm-.64-.62.25.24-.39-.36Zm-.65-.61.47.45-.44-.42-.38-.36Zm-.66-.62.18.17-.39-.37Zm-1.66-1.53.4.36.49.46.4.37Zm-.35-.31.2.18-.4-.37Zm-1.68-1.5.41.36.51.45.4.36Zm-.39-.34.23.19-.42-.36Zm-.7-.61.36.31-.41-.35-.52-.45ZM666.32,440.5a125.68,125.68,0,0,1,16.57,12.12A125.68,125.68,0,0,0,666.32,440.5Zm-1.21-.73.6.36.61.37Z"/><path class="cls-15" d="M756.75,380.14H11.25a11.25,11.25,0,0,0,0,22.5h745.5a11.25,11.25,0,0,0,0-22.5Z"/></g><g id="Ebene_6" data-name="Ebene 6"><path class="cls-16" d="M337.3,560.62a1.3,1.3,0,0,1,.54-1Z"/></g></g></g></g></svg>