<?xml version="1.0" encoding="UTF-8" standalone="no"?>
<!DOCTYPE svg PUBLIC "-//W3C//DTD SVG 1.1//EN" "http://www.w3.org/Graphics/SVG/1.1/DTD/svg11.dtd">
<svg width="100%" height="100%" viewBox="0 0 512 512" version="1.1" xmlns="http://www.w3.org/2000/svg" xmlns:xlink="http://www.w3.org/1999/xlink" xml:space="preserve" xmlns:serif="http://www.serif.com/" style="fill-rule:evenodd;clip-rule:evenodd;stroke-linejoin:round;stroke-miterlimit:2;">
    <circle cx="258.24" cy="427.22" r="15.785" style="fill:rgb(127,219,213);"/>
    <g>
        <circle cx="324.36" cy="445.33" r="15.02" style="fill:rgb(61,59,107);"/>
        <circle cx="277.79" cy="358.39" r="15.02" style="fill:rgb(61,59,107);"/>
    </g>
    <circle cx="335.73" cy="386.41" r="18.93" style="fill:rgb(127,219,213);"/>
    <circle cx="277.79" cy="491.72" r="20.279" style="fill:rgb(242,177,155);"/>
    <path d="M194.259,84.051L125.557,145.231L212.593,242.967L281.295,181.787C308.284,157.753 310.679,116.39 286.645,89.401C262.611,62.412 221.248,60.017 194.259,84.051Z" style="fill:rgb(127,219,213);fill-rule:nonzero;"/>
    <path d="M56.856,206.412L125.558,145.232L212.594,242.968L143.892,304.148C116.903,328.182 75.541,325.787 51.506,298.798C27.471,271.809 29.867,230.446 56.856,206.412Z" style="fill:rgb(61,59,107);fill-rule:nonzero;"/>
    <path d="M286.645,89.401C273.028,74.11 253.849,66.722 234.873,67.554C229.505,85.048 231.447,104.68 241.898,121.422L263.564,156.128C267.298,162.11 266.072,169.941 260.66,174.463C220.122,208.336 168.275,244.89 141.158,256C99.688,272.99 63.456,230.004 69.305,195.326L57.584,205.763C30.727,229.68 27.365,270.98 50.932,298.145C74.877,325.747 116.686,328.374 143.891,304.148L281.295,181.787C308.284,157.753 310.679,116.39 286.645,89.401Z" style="fill-opacity:0.1;fill-rule:nonzero;"/>
    <path d="M258.677,100.097L307.394,178.133L418.409,108.828L369.692,30.792C350.554,0.136 310.188,-9.201 279.532,9.937C248.877,29.075 239.539,69.441 258.677,100.097Z" style="fill:rgb(118,183,235);fill-rule:nonzero;"/>
    <path d="M356.111,256.17L307.394,178.134L418.409,108.829L467.126,186.865C486.264,217.521 476.927,257.887 446.271,277.025C415.615,296.163 375.249,286.826 356.111,256.17Z" style="fill:rgb(209,239,242);fill-rule:nonzero;"/>
    <path d="M446.271,277.025C449.217,275.186 451.961,273.147 454.507,270.944C376.715,259.512 275.303,73.81 279.873,9.736C279.76,9.805 279.645,9.867 279.532,9.937C248.876,29.075 239.539,69.441 258.677,100.097L356.11,256.17C375.249,286.826 415.615,296.163 446.271,277.025Z" style="fill-opacity:0.1;fill-rule:nonzero;"/>
    <path d="M168.093,356.227L247.764,389.228C250.702,390.445 254.071,389.05 255.288,386.111L300.963,275.842C302.18,272.903 300.785,269.535 297.846,268.318L218.175,235.317C184.787,221.487 146.509,237.342 132.679,270.731C118.849,304.12 134.705,342.397 168.093,356.227Z" style="fill:rgb(242,177,155);fill-rule:nonzero;"/>
    <path d="M255.289,386.112L266.538,358.955C172.439,341.046 140.844,285.435 148.208,248.201C141.693,254.346 136.329,261.921 132.68,270.731C118.85,304.119 134.705,342.397 168.094,356.227L247.765,389.228C250.703,390.446 254.071,389.05 255.289,386.112Z" style="fill-opacity:0.1;fill-rule:nonzero;"/>
    <path d="M434.83,356.227L355.159,389.228C352.221,390.445 348.852,389.05 347.635,386.111L301.96,275.842C300.743,272.903 302.138,269.535 305.077,268.318L384.748,235.317C418.136,221.487 456.414,237.342 470.244,270.731C484.073,304.12 468.218,342.397 434.83,356.227Z" style="fill:rgb(118,183,235);fill-rule:nonzero;"/>
</svg>
