<?xml version="1.0" encoding="UTF-8" standalone="no"?>
<!DOCTYPE svg PUBLIC "-//W3C//DTD SVG 1.1//EN" "http://www.w3.org/Graphics/SVG/1.1/DTD/svg11.dtd">
<svg width="100%" height="100%" viewBox="0 0 512 512" version="1.1" xmlns="http://www.w3.org/2000/svg" xmlns:xlink="http://www.w3.org/1999/xlink" xml:space="preserve" xmlns:serif="http://www.serif.com/" style="fill-rule:evenodd;clip-rule:evenodd;stroke-linejoin:round;stroke-miterlimit:2;">
    <g id="Flat" transform="matrix(1.13227,0,0,1.13227,-15.7449,-42.6804)">
        <path d="M112,248L112,328L88,328C74.834,328 64,338.834 64,352C64,365.166 74.834,376 88,376L112,376L112,408C112,434.332 133.668,456 160,456L200,456L200,488L376,488L376,452.721C376,423.312 382.848,394.304 396,368C409.152,341.696 416,312.688 416,283.279L416,248L112,248Z" style="fill:rgb(253,200,162);fill-rule:nonzero;"/>
        <g>
            <path d="M360.223,350.112C356.097,358.373 352.476,366.875 349.379,375.574L364.451,380.94C367.331,372.853 370.698,364.948 374.533,357.267C381.903,342.509 387.026,326.732 389.733,310.46L373.952,307.822C371.506,322.523 366.879,336.777 360.223,350.112Z" style="fill:rgb(253,182,131);fill-rule:nonzero;"/>
            <path d="M376,280L376,283.279C376,287.279 375.833,291.342 375.5,295.345L391.446,296.655C391.811,292.218 391.996,287.718 391.996,283.279L391.996,280L376,280Z" style="fill:rgb(253,182,131);fill-rule:nonzero;"/>
            <path d="M147.313,377.373C137.972,386.766 125.247,392.036 112,392L112,408C129.491,408.048 146.293,401.088 158.628,388.686L165.657,381.657L154.343,370.343L147.313,377.373Z" style="fill:rgb(253,182,131);fill-rule:nonzero;"/>
            <rect x="200" y="456" width="64" height="16" style="fill:rgb(253,182,131);"/>
        </g>
        <g transform="matrix(12.0206,0,0,12.0206,166.013,39.578)">
            <path d="M9,11L6,11C6,8 7.6,7 8.7,6.4C9.1,6.2 9.4,6 9.6,5.8C10.1,5.3 9.9,4.6 9.8,4.4C9.5,3.7 8.8,3 7.5,3C5.4,3 5,4.9 5,5.3L2,4.9C2.2,3.2 3.7,0 7.5,0C9.8,0 11.8,1.3 12.6,3.2C13.3,4.9 13,6.7 11.8,7.9C11.3,8.4 10.7,8.7 10.2,9C9.3,9.5 9,10 9,11Z" style="fill:rgb(61,59,107);fill-rule:nonzero;"/>
        </g>
        <g transform="matrix(12.0206,0,0,12.0206,166.013,39.578)">
            <path d="M9.5,14C9.5,15.105 8.605,16 7.5,16C6.395,16 5.5,15.105 5.5,14C5.5,12.895 6.395,12 7.5,12C8.605,12 9.5,12.895 9.5,14Z" style="fill:rgb(61,59,107);fill-rule:nonzero;"/>
        </g>
    </g>
</svg>
