<?xml version="1.0" encoding="UTF-8" standalone="no"?>
<!DOCTYPE svg PUBLIC "-//W3C//DTD SVG 1.1//EN" "http://www.w3.org/Graphics/SVG/1.1/DTD/svg11.dtd">
<svg width="100%" height="100%" viewBox="0 0 512 512" version="1.1" xmlns="http://www.w3.org/2000/svg" xmlns:xlink="http://www.w3.org/1999/xlink" xml:space="preserve" xmlns:serif="http://www.serif.com/" style="fill-rule:evenodd;clip-rule:evenodd;stroke-linejoin:round;stroke-miterlimit:2;">
    <g id="Ebene1" transform="matrix(1.07596,0,0,1.07596,-5.46417,-46.6857)">
        <g transform="matrix(0.550231,0,0,0.550231,-29.207,3.36599)">
            <path d="M112,248L112,328L88,328C74.834,328 64,338.834 64,352C64,365.166 74.834,376 88,376L112,376L112,408C112,434.332 133.668,456 160,456L200,456L200,488L376,488L376,452.721C376,423.312 382.848,394.304 396,368C409.152,341.696 416,312.688 416,283.279L416,248L112,248Z" style="fill:rgb(253,200,162);fill-rule:nonzero;"/>
        </g>
        <g transform="matrix(0.550231,0,0,0.550231,-29.207,3.36599)">
            <path d="M360.223,350.112C356.097,358.373 352.476,366.875 349.379,375.574L364.451,380.94C367.331,372.853 370.698,364.948 374.533,357.267C381.903,342.509 387.026,326.732 389.733,310.46L373.952,307.822C371.506,322.523 366.879,336.777 360.223,350.112Z" style="fill:rgb(253,182,131);fill-rule:nonzero;"/>
            <path d="M376,280L376,283.279C376,287.279 375.833,291.342 375.5,295.345L391.446,296.655C391.811,292.218 391.996,287.718 391.996,283.279L391.996,280L376,280Z" style="fill:rgb(253,182,131);fill-rule:nonzero;"/>
            <path d="M147.313,377.373C137.972,386.766 125.247,392.036 112,392L112,408C129.491,408.048 146.293,401.088 158.628,388.686L165.657,381.657L154.343,370.343L147.313,377.373Z" style="fill:rgb(253,182,131);fill-rule:nonzero;"/>
            <rect x="200" y="456" width="64" height="16" style="fill:rgb(253,182,131);"/>
        </g>
        <g transform="matrix(0.707636,0,0,0.707636,10.6661,3.23817)">
            <rect x="89.784" y="56.741" width="115.484" height="115.484" style="fill:rgb(61,59,107);"/>
        </g>
    </g>
    <g id="Ebene11" serif:id="Ebene1" transform="matrix(1.07596,0,0,1.07596,295.143,-46.6857)">
        <g transform="matrix(0.550231,0,0,0.550231,-29.207,3.36599)">
            <path d="M112,248L112,328L88,328C74.834,328 64,338.834 64,352C64,365.166 74.834,376 88,376L112,376L112,408C112,434.332 133.668,456 160,456L200,456L200,488L376,488L376,452.721C376,423.312 382.848,394.304 396,368C409.152,341.696 416,312.688 416,283.279L416,248L112,248Z" style="fill:rgb(253,200,162);fill-rule:nonzero;"/>
        </g>
        <g transform="matrix(0.550231,0,0,0.550231,-29.207,3.36599)">
            <path d="M360.223,350.112C356.097,358.373 352.476,366.875 349.379,375.574L364.451,380.94C367.331,372.853 370.698,364.948 374.533,357.267C381.903,342.509 387.026,326.732 389.733,310.46L373.952,307.822C371.506,322.523 366.879,336.777 360.223,350.112Z" style="fill:rgb(253,182,131);fill-rule:nonzero;"/>
            <path d="M376,280L376,283.279C376,287.279 375.833,291.342 375.5,295.345L391.446,296.655C391.811,292.218 391.996,287.718 391.996,283.279L391.996,280L376,280Z" style="fill:rgb(253,182,131);fill-rule:nonzero;"/>
            <path d="M147.313,377.373C137.972,386.766 125.247,392.036 112,392L112,408C129.491,408.048 146.293,401.088 158.628,388.686L165.657,381.657L154.343,370.343L147.313,377.373Z" style="fill:rgb(253,182,131);fill-rule:nonzero;"/>
            <rect x="200" y="456" width="64" height="16" style="fill:rgb(253,182,131);"/>
        </g>
        <g transform="matrix(0.929403,0,0,0.929403,-276.165,43.3898)">
            <circle cx="420.943" cy="43.964" r="43.964" style="fill:rgb(127,219,213);"/>
        </g>
    </g>
    <g id="Ebene12" serif:id="Ebene1" transform="matrix(1.09057,0,0,1.09057,143.837,215.498)">
        <g transform="matrix(0.550231,0,0,0.550231,-29.207,3.36599)">
            <path d="M112,248L112,328L88,328C74.834,328 64,338.834 64,352C64,365.166 74.834,376 88,376L112,376L112,408C112,434.332 133.668,456 160,456L200,456L200,488L376,488L376,452.721C376,423.312 382.848,394.304 396,368C409.152,341.696 416,312.688 416,283.279L416,248L112,248Z" style="fill:rgb(253,200,162);fill-rule:nonzero;"/>
        </g>
        <g transform="matrix(0.550231,0,0,0.550231,-29.207,3.36599)">
            <path d="M360.223,350.112C356.097,358.373 352.476,366.875 349.379,375.574L364.451,380.94C367.331,372.853 370.698,364.948 374.533,357.267C381.903,342.509 387.026,326.732 389.733,310.46L373.952,307.822C371.506,322.523 366.879,336.777 360.223,350.112Z" style="fill:rgb(253,182,131);fill-rule:nonzero;"/>
            <path d="M376,280L376,283.279C376,287.279 375.833,291.342 375.5,295.345L391.446,296.655C391.811,292.218 391.996,287.718 391.996,283.279L391.996,280L376,280Z" style="fill:rgb(253,182,131);fill-rule:nonzero;"/>
            <path d="M147.313,377.373C137.972,386.766 125.247,392.036 112,392L112,408C129.491,408.048 146.293,401.088 158.628,388.686L165.657,381.657L154.343,370.343L147.313,377.373Z" style="fill:rgb(253,182,131);fill-rule:nonzero;"/>
            <rect x="200" y="456" width="64" height="16" style="fill:rgb(253,182,131);"/>
        </g>
        <g transform="matrix(1.24919,0,0,1.15492,-233.085,-260.363)">
            <path d="M278.696,263.009L311.405,333.768L245.987,333.768L278.696,263.009Z" style="fill:rgb(222,85,64);"/>
        </g>
    </g>
</svg>
